<svg width="28" height="28" viewBox="0 0 28 28" fill="none" xmlns="http://www.w3.org/2000/svg">
<path d="M10.3498 3.54C12.4915 3.47955 14.636 4.12683 16.2901 5.50744C16.6382 5.79797 16.9822 6.25272 17.2861 6.59613C17.4558 6.78787 17.6422 7.07984 17.8029 7.28771C18.225 8.02837 18.4825 8.73433 18.5764 9.58502C18.6088 9.87875 18.8412 10.4496 18.7517 10.7745C18.5928 11.3522 18.501 11.9028 18.3876 12.4867C18.3465 12.6656 17.9097 13.5541 17.8115 13.6902C17.2958 14.405 16.6795 15.1754 15.9834 15.7209C14.4303 16.8817 12.6237 17.4283 10.6995 17.4973C10.11 17.5184 9.46917 17.4227 8.89287 17.3443C8.46229 17.3158 7.81594 17.0337 7.40739 17.0305C7.11818 17.0283 6.54568 17.5939 6.30774 17.7734C5.96427 18.0324 5.58212 18.3167 5.22205 18.5634C5.04098 18.6875 4.8201 18.8796 4.62249 18.9766C4.50075 19.0368 4.36745 19.0699 4.23172 19.0738C3.34668 19.101 3.52535 17.6599 3.52742 17.071L3.53308 15.2789C3.53393 14.1518 3.59436 14.3612 3.05295 13.4131C2.39724 12.265 2.23757 10.7107 2.44017 9.41763C2.60324 8.10288 3.18109 7.21481 4.03635 6.24556C5.71301 4.34536 7.82518 3.61755 10.3498 3.54Z" fill="#49454E"/>
<path d="M20.6274 22.8645C19.3044 23.1959 18.372 23.4055 16.9808 23.3093C16.1935 23.2548 15.2948 23.1239 14.5344 22.877C13.6847 22.5449 12.7577 22.0666 12.0297 21.5104C11.6523 21.222 10.6948 20.4443 10.7269 19.9555C10.8597 19.8199 11.4241 19.854 11.6317 19.7989C12.0943 19.6763 12.5957 19.625 13.0558 19.5194C14.7612 19.1344 16.3538 18.3585 17.7082 17.253C18.5227 16.5801 19.1764 15.7874 19.724 14.8826C20.1273 14.2162 20.4023 13.7219 20.5943 12.9637C20.7684 12.2762 20.9541 11.6334 20.9698 10.9098C20.9745 10.7085 20.967 10.2176 21.0587 10.0704C21.2995 9.95536 22.7353 10.9352 23.003 11.1398C24.144 12.0115 25.0078 13.245 25.4499 14.6083C25.5229 14.8334 25.5077 15.2144 25.5813 15.4549C25.6557 15.7306 25.7593 16.0838 25.7547 16.3755C25.7039 16.7211 25.6 17.1081 25.545 17.4699C25.5169 17.6542 25.4181 18.2574 25.3607 18.3889C25.1884 18.783 24.6149 19.7563 24.5272 20.1124C24.4397 20.5969 24.4511 21.0426 24.4517 21.5301C24.4514 22.054 24.4539 22.5779 24.4589 23.1018C24.4656 23.4609 24.4893 23.8132 24.4789 24.1734C24.3867 24.3981 24.3635 24.7757 24.1157 24.8548C23.9865 24.9042 23.5819 24.9413 23.4617 24.866C22.8516 24.4844 22.2844 23.9705 21.6809 23.5635C21.269 23.2857 21.0862 23.0801 20.6274 22.8645Z" fill="#49454E"/>
</svg>
